ply
format ascii 1.0
comment VCGLIB generated
element vertex 373
property float x
property float y
property float z
element face 738
property list uchar int vertex_indices
end_header
-86.3387 -11.5989 -6.3934 
-86.3387 -13.312 0 
-86.8254 -13.0562 0 
-86.8254 -11.3774 -6.2655 
-86.3387 -6.9187 -11.0736 
-86.8254 -6.7908 -10.8521 
-86.3387 -0.5253 -12.7867 
-86.8254 -0.5253 -12.5309 
-86.3387 5.868 -11.0736 
-86.8254 5.7401 -10.8521 
-86.3387 10.5483 -6.3934 
-86.8254 10.3268 -6.2655 
-86.3387 12.2614 -0 
-86.8254 12.0056 -0 
-86.3387 10.5483 6.3934 
-86.8254 10.3268 6.2655 
-86.3387 5.868 11.0736 
-86.8254 5.7402 10.8521 
-86.3387 -0.5253 12.7867 
-86.8254 -0.5253 12.5309 
-86.3387 -6.9187 11.0736 
-86.8254 -6.7908 10.8521 
-86.3387 -11.5989 6.3934 
-86.8254 -11.3774 6.2655 
-85.6828 -12.5544 -6.945 
-85.6828 -14.4153 0 
-85.6828 -7.4703 -12.0291 
-85.6828 -0.5253 -13.89 
-85.6828 6.4197 -12.0291 
-85.6828 11.5037 -6.945 
-85.6828 13.3646 -0 
-85.6828 11.5037 6.945 
-85.6828 6.4197 12.0291 
-85.6828 -0.5253 13.89 
-85.6828 -7.4703 12.0291 
-85.6828 -12.5544 6.945 
-81.2895 -12.5515 -6.9433 
-81.2895 -14.4119 0 
-81.2895 -7.4686 -12.0262 
-81.2895 -0.5253 -13.8866 
-81.2895 6.418 -12.0262 
-81.2895 11.5008 -6.9433 
-81.2895 13.3613 -0 
-81.2895 11.5008 6.9433 
-81.2895 6.418 12.0262 
-81.2895 -0.5253 13.8866 
-81.2895 -7.4686 12.0262 
-81.2895 -12.5515 6.9433 
-81.2738 -10.8598 -5.9666 
-81.2738 -12.4585 -0 
-81.2738 -6.4919 -10.3345 
-81.2738 -0.5253 -11.9332 
-81.2738 5.4413 -10.3345 
-81.2738 9.8091 -5.9666 
-81.2738 11.4079 -0 
-81.2738 9.8091 5.9666 
-81.2738 5.4413 10.3345 
-81.2738 -0.5253 11.9332 
-81.2738 -6.4919 10.3345 
-81.2738 -10.8598 5.9666 
-80.1219 -10.9767 -6.0341 
-80.1219 -12.5935 -0 
-80.1219 -6.5594 -10.4514 
-80.1219 -0.5253 -12.0682 
-80.1219 5.5088 -10.4514 
-80.1219 9.926 -6.0341 
-80.1219 11.5429 -0 
-80.1219 9.926 6.0341 
-80.1219 5.5088 10.4513 
-80.1219 -0.5253 12.0682 
-80.1219 -6.5594 10.4514 
-80.1219 -10.9767 6.0341 
-77.6664 -12.3186 -6.8088 
-77.6664 -14.143 -0 
-77.6664 -7.3342 -11.7933 
-77.6664 -0.5253 -13.6177 
-77.6664 6.2835 -11.7933 
-77.6664 11.2679 -6.8088 
-77.6664 13.0924 -0 
-77.6664 11.2679 6.8088 
-77.6664 6.2835 11.7933 
-77.6664 -0.5253 13.6177 
-77.6664 -7.3342 11.7933 
-77.6664 -12.3186 6.8089 
26.2403 -11.2681 -6.2018 
26.2425 -12.9294 0.0001 
26.2367 -6.7281 -10.7428 
26.2354 -0.5252 -12.405 
26.2376 5.6775 -10.7426 
26.2412 10.2173 -6.2019 
26.2425 11.8788 -0.0001 
26.2403 10.2175 6.2018 
26.2367 5.6774 10.7428 
26.2354 -0.5254 12.405 
26.2376 -6.7281 10.7426 
26.2412 -11.2679 6.2019 
37.4264 -8.5153 -4.6484 
37.426 -9.7507 0.0001 
37.4252 -5.1391 -8.0527 
37.4235 -0.5252 -9.2994 
37.4231 4.0887 -8.0529 
37.4243 7.4649 -4.6486 
37.426 8.7 -0.0001 
37.4264 7.4646 4.6484 
37.4252 4.0884 8.0527 
37.4235 -0.5254 9.2994 
37.4231 -5.1393 8.0529 
37.4243 -8.5155 4.6486 
58.9338 -8.2312 -4.4483 
58.9318 -9.423 -0.0002 
58.9396 -4.9748 -7.7051 
58.9434 -0.5255 -8.8975 
58.9414 3.924 -7.7052 
58.9356 7.1806 -4.4481 
58.9318 8.3724 0.0002 
58.9338 7.1806 4.4483 
58.9396 3.9242 7.7051 
58.9434 -0.5251 8.8975 
58.9414 -4.9746 7.7052 
58.9356 -8.2313 4.4481 
-86.8254 3.2176 0 
-86.8254 2.7161 -1.8714 
-86.8254 1.3461 -3.2414 
-86.8254 -0.5253 -3.7429 
-86.8254 -2.3967 -3.2414 
-86.8254 -3.7667 -1.8714 
-86.8254 -4.2682 -0 
-86.8254 -3.7667 1.8714 
-86.8254 -2.3967 3.2414 
-86.8254 -0.5253 3.7429 
-86.8254 1.3461 3.2414 
-86.8253 2.7161 1.8714 
-85.3103 -12.807 -0 
-84.7923 -13.1001 0 
-84.7923 -11.4154 -6.2874 
-85.3103 -11.1615 -6.1408 
-84.7923 -6.8127 -10.8901 
-85.3103 -6.6661 -10.6362 
-84.7923 -0.5253 -12.5748 
-85.3103 -0.5253 -12.2816 
-84.7923 5.7621 -10.8901 
-85.3103 5.6155 -10.6362 
-84.7923 10.3648 -6.2874 
-85.3103 10.1109 -6.1408 
-84.7923 12.0495 -0 
-85.3103 11.7563 -0 
-84.7923 10.3648 6.2874 
-85.3103 10.1109 6.1408 
-84.7923 5.7621 10.8901 
-85.3103 5.6155 10.6362 
-84.7923 -0.5253 12.5748 
-85.3103 -0.5253 12.2816 
-84.7923 -6.8127 10.8901 
-85.3103 -6.6661 10.6362 
-84.7923 -11.4154 6.2874 
-85.3103 -11.1615 6.1408 
-84.6595 -13.8799 0 
-84.6595 -12.0907 -6.6773 
-84.6595 -7.2026 -11.5654 
-84.6595 -0.5253 -13.3546 
-84.6595 6.152 -11.5654 
-84.6595 11.0401 -6.6773 
-84.6595 12.8293 -0 
-84.6595 11.0401 6.6773 
-84.6595 6.152 11.5654 
-84.6595 -0.5253 13.3546 
-84.6595 -7.2026 11.5654 
-84.6595 -12.0907 6.6773 
-82.3224 -13.8799 0 
-82.3224 -12.0907 -6.6773 
-82.3224 -7.2026 -11.5654 
-82.3224 -0.5253 -13.3546 
-82.3224 6.152 -11.5654 
-82.3224 11.0401 -6.6773 
-82.3224 12.8293 -0 
-82.3224 11.0401 6.6773 
-82.3224 6.152 11.5654 
-82.3224 -0.5253 13.3546 
-82.3224 -7.2026 11.5654 
-82.3224 -12.0907 6.6773 
-82.0826 -12.0022 0 
-82.0826 -10.4646 -5.7385 
-82.0826 -6.2638 -9.9393 
-82.0826 -0.5253 -11.4769 
-82.0826 5.2131 -9.9393 
-82.0826 9.414 -5.7385 
-82.0826 10.9516 -0 
-82.0826 9.414 5.7385 
-82.0826 5.2132 9.9393 
-82.0826 -0.5253 11.4769 
-82.0826 -6.2638 9.9393 
-82.0826 -10.4646 5.7385 
-79.2871 -12.0022 0 
-79.2871 -10.4646 -5.7385 
-79.2871 -6.2638 -9.9393 
-79.2871 -0.5253 -11.4769 
-79.2871 5.2131 -9.9393 
-79.2871 9.414 -5.7385 
-79.2871 10.9516 -0 
-79.2871 9.414 5.7385 
-79.2871 5.2132 9.9393 
-79.2871 -0.5253 11.4769 
-79.2871 -6.2638 9.9393 
-79.2871 -10.4646 5.7385 
-76.9606 -13.5223 0 
-76.9606 -11.781 -6.4985 
-76.9606 -7.0238 -11.2557 
-76.9606 -0.5253 -12.9969 
-76.9606 5.9732 -11.2557 
-76.9606 10.7304 -6.4985 
-76.9606 12.4716 -0 
-76.9606 10.7304 6.4985 
-76.9606 5.9732 11.2557 
-76.9606 -0.5253 12.9969 
-76.9606 -7.0238 11.2557 
-76.9606 -11.781 6.4985 
25.7671 -12.2705 0 
25.7671 -10.6969 -5.8726 
25.7671 -6.3979 -10.1716 
25.7671 -0.5253 -11.7452 
25.7671 5.3473 -10.1716 
25.7671 9.6463 -5.8726 
25.7671 11.2199 -0 
25.7671 9.6463 5.8726 
25.7671 5.3473 10.1716 
25.7671 -0.5253 11.7452 
25.7671 -6.3979 10.1716 
25.7671 -10.6969 5.8726 
36.8993 -9.0987 -0 
36.8993 -7.9501 -4.3235 
36.8993 -4.812 -7.4886 
36.8993 -0.5253 -8.6471 
36.8993 3.7614 -7.4886 
36.8993 6.8995 -4.3235 
36.8993 8.0481 -0 
36.8993 6.8995 4.3235 
36.8993 3.7614 7.4886 
36.8993 -0.5253 8.6471 
36.8993 -4.812 7.4886 
36.8993 -7.9501 4.3235 
58.8677 -8.7344 -0 
58.8677 -7.6346 -4.1046 
58.8677 -4.6299 -7.1093 
58.8677 -0.5253 -8.2091 
58.8677 3.5792 -7.1093 
58.8677 6.584 -4.1046 
58.8677 7.6838 -0 
58.8677 6.584 4.1046 
58.8677 3.5792 7.1093 
58.8677 -0.5253 8.2091 
58.8677 -4.6299 7.1093 
58.8677 -7.6346 4.1046 
-86.8254 -5.8524 -0 
-86.8254 -5.1387 -2.6635 
-86.8254 -5.1387 2.6635 
-86.8254 -3.1889 4.6134 
-86.8254 -0.5253 5.3271 
-86.8254 2.1382 4.6134 
-86.8253 4.0881 2.6635 
-86.8254 4.8018 0 
-86.8254 4.0881 -2.6635 
-86.8254 2.1382 -4.6134 
-86.8254 -0.5253 -5.3271 
-86.8254 -3.1889 -4.6134 
-86.2547 -4.4879 -2.2878 
-86.2548 -5.1009 -0 
-86.2548 -5.0196 -0 
-86.2547 -4.4175 -2.2472 
-86.2548 -4.4879 2.2878 
-86.2548 -4.4175 2.2472 
-86.2547 -2.8131 3.9626 
-86.2547 -2.7725 3.8922 
-86.2547 -0.5253 4.5756 
-86.2547 -0.5253 4.4943 
-86.2548 1.7625 3.9626 
-86.2548 1.7219 3.8922 
-86.2547 3.4373 2.2878 
-86.2547 3.3669 2.2472 
-86.2548 4.0503 0 
-86.2548 3.969 0 
-86.2548 3.4373 -2.2878 
-86.2548 3.3669 -2.2472 
-86.2548 1.7625 -3.9626 
-86.2548 1.7218 -3.8922 
-86.2547 -0.5253 -4.5756 
-86.2547 -0.5253 -4.4943 
-86.2547 -2.8131 -3.9626 
-86.2547 -2.7725 -3.8922 
116.8682 -0.4119 -0 
115.2643 -0.3941 -1.7402 
115.2643 0.4064 -1.5071 
115.2643 0.9925 -0.8701 
115.2643 1.207 -0 
115.2643 0.9925 0.8701 
115.2643 0.4064 1.5071 
115.2643 -0.3941 1.7402 
115.2643 -1.1946 1.5071 
115.2643 -1.7806 0.8701 
115.2643 -1.9951 0 
115.2643 -1.7806 -0.8701 
115.2643 -1.1946 -1.5071 
95.1485 2.3214 -5.4079 
114.2115 0.67 -1.9696 
114.2115 -0.3762 -2.2743 
95.1485 -0.3762 -6.2445 
95.1485 4.2961 -3.1222 
114.2115 1.4358 -1.1371 
95.1485 5.0189 -0 
114.2115 1.7162 -0 
95.1485 4.2961 3.1222 
114.2115 1.4358 1.1371 
95.1485 2.3214 5.4079 
114.2115 0.67 1.9696 
95.1485 -0.3762 6.2445 
114.2115 -0.3762 2.2743 
95.1485 -3.0738 5.4079 
114.2115 -1.4224 1.9696 
95.1485 -5.0485 3.1222 
114.2115 -2.1883 1.1371 
95.1485 -5.7714 0 
114.2115 -2.4686 0 
95.1485 -5.0485 -3.1222 
114.2115 -2.1883 -1.1371 
95.1485 -3.0738 -5.4079 
114.2115 -1.4224 -1.9696 
77.3501 -0.3762 -7.9575 
77.3501 3.3818 -6.8914 
77.3501 6.1328 -3.9787 
77.3501 7.1397 -0 
77.3501 6.1328 3.9787 
77.3501 3.3818 6.8914 
77.3501 -0.3762 7.9575 
77.3501 -4.1342 6.8914 
77.3501 -6.8852 3.9787 
77.3501 -7.8921 0 
77.3501 -6.8852 -3.9787 
77.3501 -4.1342 -6.8914 
31.4045 2.3309 -5.7218 
46.0079 3.4728 -7.2462 
46.0079 -0.3762 -8.3672 
31.4045 -0.7084 -6.607 
31.4045 4.5558 -3.3035 
46.0079 6.2904 -4.1836 
31.4045 5.3701 -0 
46.0079 7.3217 -0 
31.4045 4.5558 3.3035 
46.0079 6.2904 4.1836 
31.4045 2.3309 5.7218 
46.0079 3.4728 7.2462 
31.4045 -0.7084 6.607 
46.0079 -0.3762 8.3672 
31.4045 -3.7476 5.7218 
46.0079 -4.2252 7.2462 
31.4045 -5.9725 3.3035 
46.0079 -7.0428 4.1836 
31.4045 -6.7869 0 
46.0079 -8.0741 0 
31.4045 -5.9725 -3.3035 
46.0079 -7.0428 -4.1836 
31.4045 -3.7476 -5.7218 
46.0079 -4.2252 -7.2462 
59.5517 3.7537 -7.425 
59.5517 -0.3762 -8.5736 
59.5517 6.7769 -4.2868 
59.5517 7.8835 -0 
59.5517 6.7769 4.2868 
59.5517 3.7537 7.425 
59.5517 -0.3762 8.5736 
59.5517 -4.5061 7.425 
59.5517 -7.5294 4.2868 
59.5517 -8.636 0 
59.5517 -7.5294 -4.2868 
59.5517 -4.5061 -7.425 
3 0 1 2 
3 0 2 3 
3 4 0 3 
3 4 3 5 
3 6 4 5 
3 6 5 7 
3 8 6 7 
3 8 7 9 
3 10 8 9 
3 10 9 11 
3 12 10 11 
3 12 11 13 
3 14 12 13 
3 14 13 15 
3 16 14 15 
3 16 15 17 
3 18 16 17 
3 18 17 19 
3 20 18 19 
3 20 19 21 
3 22 20 21 
3 22 21 23 
3 1 22 23 
3 1 23 2 
3 24 25 1 
3 24 1 0 
3 26 24 0 
3 26 0 4 
3 27 26 4 
3 27 4 6 
3 28 27 6 
3 28 6 8 
3 29 28 8 
3 29 8 10 
3 30 29 10 
3 30 10 12 
3 31 30 12 
3 31 12 14 
3 32 31 14 
3 32 14 16 
3 33 32 16 
3 33 16 18 
3 34 33 18 
3 34 18 20 
3 35 34 20 
3 35 20 22 
3 25 35 22 
3 25 22 1 
3 36 37 25 
3 36 25 24 
3 38 36 24 
3 38 24 26 
3 39 38 26 
3 39 26 27 
3 40 39 27 
3 40 27 28 
3 41 40 28 
3 41 28 29 
3 42 41 29 
3 42 29 30 
3 43 42 30 
3 43 30 31 
3 44 43 31 
3 44 31 32 
3 45 44 32 
3 45 32 33 
3 46 45 33 
3 46 33 34 
3 47 46 34 
3 47 34 35 
3 37 47 35 
3 37 35 25 
3 48 49 37 
3 48 37 36 
3 50 48 36 
3 50 36 38 
3 51 50 38 
3 51 38 39 
3 52 51 39 
3 52 39 40 
3 53 52 40 
3 53 40 41 
3 54 53 41 
3 54 41 42 
3 55 54 42 
3 55 42 43 
3 56 55 43 
3 56 43 44 
3 57 56 44 
3 57 44 45 
3 58 57 45 
3 58 45 46 
3 59 58 46 
3 59 46 47 
3 49 59 47 
3 49 47 37 
3 60 61 49 
3 60 49 48 
3 62 60 48 
3 62 48 50 
3 63 62 50 
3 63 50 51 
3 64 63 51 
3 64 51 52 
3 65 64 52 
3 65 52 53 
3 66 65 53 
3 66 53 54 
3 67 66 54 
3 67 54 55 
3 68 67 55 
3 68 55 56 
3 69 68 56 
3 69 56 57 
3 70 69 57 
3 70 57 58 
3 71 70 58 
3 71 58 59 
3 61 71 59 
3 61 59 49 
3 72 73 61 
3 72 61 60 
3 74 72 60 
3 74 60 62 
3 75 74 62 
3 75 62 63 
3 76 75 63 
3 76 63 64 
3 77 76 64 
3 77 64 65 
3 78 77 65 
3 78 65 66 
3 79 78 66 
3 79 66 67 
3 80 79 67 
3 80 67 68 
3 81 80 68 
3 81 68 69 
3 82 81 69 
3 82 69 70 
3 83 82 70 
3 83 70 71 
3 73 83 71 
3 73 71 61 
3 84 85 73 
3 84 73 72 
3 86 84 72 
3 86 72 74 
3 87 86 74 
3 87 74 75 
3 88 87 75 
3 88 75 76 
3 89 88 76 
3 89 76 77 
3 90 89 77 
3 90 77 78 
3 91 90 78 
3 91 78 79 
3 92 91 79 
3 92 79 80 
3 93 92 80 
3 93 80 81 
3 94 93 81 
3 94 81 82 
3 95 94 82 
3 95 82 83 
3 85 95 83 
3 85 83 73 
3 96 97 85 
3 96 85 84 
3 98 96 84 
3 98 84 86 
3 99 98 86 
3 99 86 87 
3 100 99 87 
3 100 87 88 
3 101 100 88 
3 101 88 89 
3 102 101 89 
3 102 89 90 
3 103 102 90 
3 103 90 91 
3 104 103 91 
3 104 91 92 
3 105 104 92 
3 105 92 93 
3 106 105 93 
3 106 93 94 
3 107 106 94 
3 107 94 95 
3 97 107 95 
3 97 95 85 
3 108 109 97 
3 108 97 96 
3 110 108 96 
3 110 96 98 
3 111 110 98 
3 111 98 99 
3 112 111 99 
3 112 99 100 
3 113 112 100 
3 113 100 101 
3 114 113 101 
3 114 101 102 
3 115 114 102 
3 115 102 103 
3 116 115 103 
3 116 103 104 
3 117 116 104 
3 117 104 105 
3 118 117 105 
3 118 105 106 
3 119 118 106 
3 119 106 107 
3 109 119 107 
3 109 107 97 
3 120 121 122 
3 120 122 123 
3 120 123 124 
3 120 124 125 
3 120 125 126 
3 120 126 127 
3 120 127 128 
3 120 128 129 
3 120 129 130 
3 120 130 131 
3 132 133 134 
3 132 134 135 
3 135 134 136 
3 135 136 137 
3 137 136 138 
3 137 138 139 
3 139 138 140 
3 139 140 141 
3 141 140 142 
3 141 142 143 
3 143 142 144 
3 143 144 145 
3 145 144 146 
3 145 146 147 
3 147 146 148 
3 147 148 149 
3 149 148 150 
3 149 150 151 
3 151 150 152 
3 151 152 153 
3 153 152 154 
3 153 154 155 
3 155 154 133 
3 155 133 132 
3 133 156 157 
3 133 157 134 
3 134 157 158 
3 134 158 136 
3 136 158 159 
3 136 159 138 
3 138 159 160 
3 138 160 140 
3 140 160 161 
3 140 161 142 
3 142 161 162 
3 142 162 144 
3 144 162 163 
3 144 163 146 
3 146 163 164 
3 146 164 148 
3 148 164 165 
3 148 165 150 
3 150 165 166 
3 150 166 152 
3 152 166 167 
3 152 167 154 
3 154 167 156 
3 154 156 133 
3 156 168 169 
3 156 169 157 
3 157 169 170 
3 157 170 158 
3 158 170 171 
3 158 171 159 
3 159 171 172 
3 159 172 160 
3 160 172 173 
3 160 173 161 
3 161 173 174 
3 161 174 162 
3 162 174 175 
3 162 175 163 
3 163 175 176 
3 163 176 164 
3 164 176 177 
3 164 177 165 
3 165 177 178 
3 165 178 166 
3 166 178 179 
3 166 179 167 
3 167 179 168 
3 167 168 156 
3 168 180 181 
3 168 181 169 
3 169 181 182 
3 169 182 170 
3 170 182 183 
3 170 183 171 
3 171 183 184 
3 171 184 172 
3 172 184 185 
3 172 185 173 
3 173 185 186 
3 173 186 174 
3 174 186 187 
3 174 187 175 
3 175 187 188 
3 175 188 176 
3 176 188 189 
3 176 189 177 
3 177 189 190 
3 177 190 178 
3 178 190 191 
3 178 191 179 
3 179 191 180 
3 179 180 168 
3 180 192 193 
3 180 193 181 
3 181 193 194 
3 181 194 182 
3 182 194 195 
3 182 195 183 
3 183 195 196 
3 183 196 184 
3 184 196 197 
3 184 197 185 
3 185 197 198 
3 185 198 186 
3 186 198 199 
3 186 199 187 
3 187 199 200 
3 187 200 188 
3 188 200 201 
3 188 201 189 
3 189 201 202 
3 189 202 190 
3 190 202 203 
3 190 203 191 
3 191 203 192 
3 191 192 180 
3 192 204 205 
3 192 205 193 
3 193 205 206 
3 193 206 194 
3 194 206 207 
3 194 207 195 
3 195 207 208 
3 195 208 196 
3 196 208 209 
3 196 209 197 
3 197 209 210 
3 197 210 198 
3 198 210 211 
3 198 211 199 
3 199 211 212 
3 199 212 200 
3 200 212 213 
3 200 213 201 
3 201 213 214 
3 201 214 202 
3 202 214 215 
3 202 215 203 
3 203 215 204 
3 203 204 192 
3 204 216 217 
3 204 217 205 
3 205 217 218 
3 205 218 206 
3 206 218 219 
3 206 219 207 
3 207 219 220 
3 207 220 208 
3 208 220 221 
3 208 221 209 
3 209 221 222 
3 209 222 210 
3 210 222 223 
3 210 223 211 
3 211 223 224 
3 211 224 212 
3 212 224 225 
3 212 225 213 
3 213 225 226 
3 213 226 214 
3 214 226 227 
3 214 227 215 
3 215 227 216 
3 215 216 204 
3 216 228 229 
3 216 229 217 
3 217 229 230 
3 217 230 218 
3 218 230 231 
3 218 231 219 
3 219 231 232 
3 219 232 220 
3 220 232 233 
3 220 233 221 
3 221 233 234 
3 221 234 222 
3 222 234 235 
3 222 235 223 
3 223 235 236 
3 223 236 224 
3 224 236 237 
3 224 237 225 
3 225 237 238 
3 225 238 226 
3 226 238 239 
3 226 239 227 
3 227 239 228 
3 227 228 216 
3 228 240 241 
3 228 241 229 
3 229 241 242 
3 229 242 230 
3 230 242 243 
3 230 243 231 
3 231 243 244 
3 231 244 232 
3 232 244 245 
3 232 245 233 
3 233 245 246 
3 233 246 234 
3 234 246 247 
3 234 247 235 
3 235 247 248 
3 235 248 236 
3 236 248 249 
3 236 249 237 
3 237 249 250 
3 237 250 238 
3 238 250 251 
3 238 251 239 
3 239 251 240 
3 239 240 228 
3 149 151 153 
3 149 153 155 
3 149 155 132 
3 149 132 135 
3 149 135 137 
3 149 137 139 
3 149 139 141 
3 149 141 143 
3 149 143 145 
3 149 145 147 
3 241 240 109 
3 241 109 108 
3 242 241 108 
3 242 108 110 
3 243 242 110 
3 243 110 111 
3 244 243 111 
3 244 111 112 
3 245 244 112 
3 245 112 113 
3 246 245 113 
3 246 113 114 
3 247 246 114 
3 247 114 115 
3 248 247 115 
3 248 115 116 
3 249 248 116 
3 249 116 117 
3 250 249 117 
3 250 117 118 
3 251 250 118 
3 251 118 119 
3 240 251 119 
3 240 119 109 
3 3 2 252 
3 3 252 253 
3 2 23 254 
3 2 254 252 
3 23 21 255 
3 23 255 254 
3 21 19 256 
3 21 256 255 
3 19 17 257 
3 19 257 256 
3 17 15 258 
3 17 258 257 
3 15 13 259 
3 15 259 258 
3 13 11 260 
3 13 260 259 
3 11 9 261 
3 11 261 260 
3 9 7 262 
3 9 262 261 
3 7 5 263 
3 7 263 262 
3 5 3 253 
3 5 253 263 
3 264 265 266 
3 264 266 267 
3 265 268 269 
3 265 269 266 
3 268 270 271 
3 268 271 269 
3 270 272 273 
3 270 273 271 
3 272 274 275 
3 272 275 273 
3 274 276 277 
3 274 277 275 
3 276 278 279 
3 276 279 277 
3 278 280 281 
3 278 281 279 
3 280 282 283 
3 280 283 281 
3 282 284 285 
3 282 285 283 
3 284 286 287 
3 284 287 285 
3 286 264 267 
3 286 267 287 
3 253 252 265 
3 253 265 264 
3 252 254 268 
3 252 268 265 
3 254 255 270 
3 254 270 268 
3 255 256 272 
3 255 272 270 
3 256 257 274 
3 256 274 272 
3 257 258 276 
3 257 276 274 
3 258 259 278 
3 258 278 276 
3 259 260 280 
3 259 280 278 
3 260 261 282 
3 260 282 280 
3 261 262 284 
3 261 284 282 
3 262 263 286 
3 262 286 284 
3 263 253 264 
3 263 264 286 
3 126 125 267 
3 126 267 266 
3 125 124 287 
3 125 287 267 
3 124 123 285 
3 124 285 287 
3 123 122 283 
3 123 283 285 
3 122 121 281 
3 122 281 283 
3 121 120 279 
3 121 279 281 
3 120 131 277 
3 120 277 279 
3 131 130 275 
3 131 275 277 
3 130 129 273 
3 130 273 275 
3 129 128 271 
3 129 271 273 
3 128 127 269 
3 128 269 271 
3 127 126 266 
3 127 266 269 
3 288 289 290 
3 288 290 291 
3 288 291 292 
3 288 292 293 
3 288 293 294 
3 288 294 295 
3 288 295 296 
3 288 296 297 
3 288 297 298 
3 288 298 299 
3 288 299 300 
3 288 300 289 
3 301 302 303 
3 301 303 304 
3 305 306 302 
3 305 302 301 
3 307 308 306 
3 307 306 305 
3 309 310 308 
3 309 308 307 
3 311 312 310 
3 311 310 309 
3 313 314 312 
3 313 312 311 
3 315 316 314 
3 315 314 313 
3 317 318 316 
3 317 316 315 
3 319 320 318 
3 319 318 317 
3 321 322 320 
3 321 320 319 
3 323 324 322 
3 323 322 321 
3 304 303 324 
3 304 324 323 
3 325 326 301 
3 325 301 304 
3 326 327 305 
3 326 305 301 
3 327 328 307 
3 327 307 305 
3 307 328 329 
3 307 329 309 
3 309 329 330 
3 309 330 311 
3 311 330 331 
3 311 331 313 
3 331 332 315 
3 331 315 313 
3 332 333 317 
3 332 317 315 
3 333 334 319 
3 333 319 317 
3 319 334 335 
3 319 335 321 
3 321 335 336 
3 321 336 323 
3 323 336 325 
3 323 325 304 
3 337 338 339 
3 337 339 340 
3 341 342 338 
3 341 338 337 
3 343 344 342 
3 343 342 341 
3 345 346 344 
3 345 344 343 
3 347 348 346 
3 347 346 345 
3 349 350 348 
3 349 348 347 
3 351 352 350 
3 351 350 349 
3 353 354 352 
3 353 352 351 
3 355 356 354 
3 355 354 353 
3 357 358 356 
3 357 356 355 
3 359 360 358 
3 359 358 357 
3 340 339 360 
3 340 360 359 
3 339 338 361 
3 339 361 362 
3 338 342 363 
3 338 363 361 
3 342 344 364 
3 342 364 363 
3 344 346 365 
3 344 365 364 
3 346 348 366 
3 346 366 365 
3 348 350 367 
3 348 367 366 
3 350 352 368 
3 350 368 367 
3 352 354 369 
3 352 369 368 
3 354 356 370 
3 354 370 369 
3 356 358 371 
3 356 371 370 
3 358 360 372 
3 358 372 371 
3 360 339 362 
3 360 362 372 
3 362 361 326 
3 362 326 325 
3 361 363 327 
3 361 327 326 
3 363 364 328 
3 363 328 327 
3 328 364 365 
3 328 365 329 
3 329 365 366 
3 329 366 330 
3 330 366 367 
3 330 367 331 
3 367 368 332 
3 367 332 331 
3 368 369 333 
3 368 333 332 
3 369 370 334 
3 369 334 333 
3 334 370 371 
3 334 371 335 
3 335 371 372 
3 335 372 336 
3 336 372 362 
3 336 362 325 
3 343 341 337 
3 343 337 340 
3 343 340 359 
3 343 359 357 
3 343 357 355 
3 343 355 353 
3 343 353 351 
3 343 351 349 
3 343 349 347 
3 343 347 345 
3 302 290 289 
3 302 289 303 
3 306 291 290 
3 306 290 302 
3 308 292 291 
3 308 291 306 
3 310 293 292 
3 310 292 308 
3 312 294 293 
3 312 293 310 
3 314 295 294 
3 314 294 312 
3 316 296 295 
3 316 295 314 
3 318 297 296 
3 318 296 316 
3 320 298 297 
3 320 297 318 
3 322 299 298 
3 322 298 320 
3 324 300 299 
3 324 299 322 
3 324 303 289 
3 324 289 300 
